<?xml version="1.0" standalone="no"?>
<!DOCTYPE svg PUBLIC "-//W3C//DTD SVG 20010904//EN"
 "http://www.w3.org/TR/2001/REC-SVG-20010904/DTD/svg10.dtd">
<svg version="1.0" xmlns="http://www.w3.org/2000/svg">

<path fill="#000000" d=" M 179.05 63.16 C 184.93 48.15 187.10 31.99 188.00 15.98 L 188.00 483.00 L 187.85 483.00 C 186.94 425.38 185.85 367.71 181.21 310.25 C 179.47 290.12 177.47 269.96 173.49 250.12 C 171.47 239.94 168.52 229.81 163.30 220.77 C 158.67 214.20 151.73 209.56 144.40 206.47 C 135.04 202.51 125.06 200.29 115.13 198.30 C 98.30 195.07 81.37 192.37 64.51 189.32 C 48.44 186.50 32.15 182.55 18.12 173.90 C 8.86 168.14 0.11 159.04 0.00 147.47 L 0.00 145.99 C 0.83 136.14 7.30 127.72 15.02 122.01 C 23.54 116.04 33.63 112.87 43.59 110.21 C 75.95 102.14 109.46 100.50 142.09 93.83 C 148.43 92.41 155.07 91.27 160.62 87.65 C 169.51 82.06 175.22 72.71 179.05 63.16 Z" />

</svg>
